<?xml version="1.0" ?><svg xmlns="http://www.w3.org/2000/svg" width="505" height="109" viewBox="0 0 505 109" version="1.1">
	<path d="M 37.121 9.127 C 23.804 11.339, 12.840 19.227, 9.055 29.318 L 7.997 32.137 32.749 31.897 C 57.310 31.660, 57.557 31.678, 65 34.324 C 69.125 35.791, 72.875 37.106, 73.334 37.245 C 73.792 37.385, 76.133 32.775, 78.535 27 C 83.565 14.910, 83.724 15.392, 73.604 12.050 C 62.310 8.320, 48.594 7.222, 37.121 9.127 M 302.470 11.219 C 302.199 11.924, 302.096 32.075, 302.239 56 L 302.500 99.500 316.229 99.778 L 329.958 100.056 330.229 80.592 L 330.500 61.128 340 76.561 L 349.500 91.994 356.119 91.997 L 362.739 92 372.119 76.057 L 381.500 60.114 382 79.807 L 382.500 99.500 396.250 99.778 L 410 100.056 410 55.028 L 410 10 397.532 10 L 385.064 10 370.803 34.018 L 356.543 58.036 354.290 54.268 C 353.051 52.196, 346.504 41.500, 339.741 30.500 L 327.445 10.500 315.203 10.219 C 305.966 10.007, 302.840 10.253, 302.470 11.219 M 425 55 L 425 100 460 100 L 495 100 495 88 L 495 76 475 76 L 455 76 455 43 L 455 10 440 10 L 425 10 425 55 M 98 22 L 98 30 93.500 30 L 89 30 89 40.500 L 89 51 93.393 51 L 97.786 51 98.182 66.250 C 98.639 83.822, 99.921 88.016, 106.709 94.129 C 112.401 99.256, 116.753 100.500, 129 100.500 C 139.712 100.500, 146 99.013, 146 96.480 C 146 95.778, 144.600 91.360, 142.888 86.662 L 139.777 78.121 135.031 78.683 C 127.924 79.524, 127 77.693, 127 62.777 L 127 51 134 51 L 141 51 141 40.500 L 141 30 134 30 L 127 30 127 22 L 127 14 112.500 14 L 98 14 98 22 M 191.591 30.573 C 189.441 31.361, 186.178 33.152, 184.341 34.554 L 181 37.102 181 33.551 L 181 30 167.500 30 L 154 30 154 65 L 154 100 168.441 100 L 182.881 100 183.191 80.517 L 183.500 61.034 186.736 57.800 C 189.651 54.887, 190.667 54.528, 196.986 54.171 L 204 53.774 204 41.387 L 204 29 199.750 29.070 C 197.412 29.109, 193.741 29.785, 191.591 30.573 M 212.173 54.750 C 212.493 78.977, 212.555 79.616, 215.093 85 C 216.520 88.025, 219.192 91.962, 221.032 93.749 C 229.880 102.342, 247.612 103.397, 258.066 95.953 L 261 93.864 261 96.932 L 261 100 275 100 L 289 100 289 65 L 289 30 274.575 30 L 260.150 30 259.825 49.930 C 259.525 68.316, 259.338 70.077, 257.404 72.680 C 254.536 76.540, 249.021 77.899, 245.524 75.607 C 244.087 74.666, 242.481 72.765, 241.955 71.383 C 241.430 70.001, 241 60.124, 241 49.435 L 241 30 226.423 30 L 211.846 30 212.173 54.750 M 8.452 45.750 C 10.164 52.784, 16.197 58.554, 25.782 62.325 C 36.498 66.541, 47.241 68, 67.557 68 L 87.135 68 86.456 65.750 C 83.131 54.726, 76.532 49.796, 59.226 45.406 C 50.700 43.243, 47.628 43, 28.763 43 L 7.783 43 8.452 45.750 M 12.341 78.776 C 10.405 83.024, 8.222 87.930, 7.491 89.678 L 6.162 92.856 10.748 95.012 C 20.210 99.459, 29.674 101.275, 44 101.391 C 59.414 101.515, 65.615 100.126, 73.591 94.759 C 79.013 91.110, 85 83.849, 85 80.922 C 85 79.083, 84.032 79, 62.660 79 C 38.961 79, 31.441 77.943, 20.400 73.059 L 15.863 71.052 12.341 78.776" stroke="none" fill="#663399" fill-rule="evenodd"/>
</svg>